<svg width="50" height="50" viewBox="0 0 50 50" fill="none" xmlns="http://www.w3.org/2000/svg">
<path fill-rule="evenodd" clip-rule="evenodd" d="M27.5676 29.6406C25.9461 30.8369 23.9416 31.544 21.772 31.544C16.3751 31.544 12 27.1689 12 21.772C12 16.3751 16.3751 12 21.772 12C27.1689 12 31.544 16.3751 31.544 21.772C31.544 23.9417 30.8369 25.9462 29.6406 27.5677L37.7138 35.6408C38.0954 36.0224 38.0954 36.6412 37.7138 37.0228L37.0228 37.7138C36.6412 38.0954 36.0224 38.0954 35.6408 37.7138L27.5676 29.6406ZM28.6124 21.772C28.6124 25.5499 25.5498 28.6124 21.772 28.6124C17.9942 28.6124 14.9316 25.5499 14.9316 21.772C14.9316 17.9942 17.9942 14.9316 21.772 14.9316C25.5498 14.9316 28.6124 17.9942 28.6124 21.772Z" fill="#FAFAFA"/>
</svg>
