<svg width="269" height="50" viewBox="0 0 269 50" fill="none" xmlns="http://www.w3.org/2000/svg">
<rect width="269" height="50" fill="white"/>
<rect width="50" height="50" fill="#E7B54E"/>
<path d="M26 25L33 22V28L26 25Z" fill="#272A2E"/>
<path d="M33 5L40 10.7143V39.2857L33 45V5Z" fill="#272A2E"/>
<path d="M24 25L17 22V28L24 25Z" fill="#272A2E"/>
<path d="M17 5L10 10.7143V39.2857L17 45V5Z" fill="#272A2E"/>
<rect x="50" width="219" height="50" fill="#EB2328"/>
<path d="M78.5132 14.596V34H74.4532V27.252C74.4532 25.3107 74.6305 23.3973 74.9852 21.512L72.2972 29.072H69.0492L66.3612 21.512C66.7158 23.248 66.8932 25.1613 66.8932 27.252V34H62.8612V14.596H67.1732L70.6732 24.508L74.1732 14.596H78.5132ZM87.9328 34L87.1208 29.52H83.2848L82.5288 34H78.5248L82.3328 14.596H88.1848L91.9368 34H87.9328ZM83.8728 25.964H86.5048L85.1608 18.46L83.8728 25.964ZM99.756 14.596H104.124L100.428 34H94.576L90.824 14.596H95.108C96.1906 20.7747 96.816 24.508 96.984 25.796C97.152 27.084 97.3386 28.6053 97.544 30.36C97.8986 27.0187 98.2066 24.5173 98.468 22.856L99.756 14.596ZM104.134 14.596H113.962V18.236H108.334V22.352H113.206V25.992H108.334V30.36H113.962V34H104.134V14.596ZM118.719 27V34H114.519V14.596H120.847C122.378 14.596 123.572 14.96 124.431 15.688C125.29 16.416 125.719 17.48 125.719 18.88V22.464C125.719 24.704 124.954 26.104 123.423 26.664L126.475 34H121.855L119.251 27H118.719ZM118.719 18.18V23.668H120.371C120.8 23.668 121.099 23.5747 121.267 23.388C121.435 23.2013 121.519 22.8747 121.519 22.408V19.244C121.519 18.8333 121.426 18.5533 121.239 18.404C121.052 18.2547 120.763 18.18 120.371 18.18H118.719ZM126.627 14.596H130.883V30.472H136.063V34H126.627V14.596ZM147.97 14.596H152.226V34H147.97V26.328H144.106V34H139.85V14.596H144.106V22.576H147.97V14.596ZM153.353 14.596H163.181V18.236H157.553V22.352H162.425V25.992H157.553V30.36H163.181V34H153.353V14.596ZM167.938 27V34H163.738V14.596H170.066C171.596 14.596 172.791 14.96 173.65 15.688C174.508 16.416 174.938 17.48 174.938 18.88V22.464C174.938 24.704 174.172 26.104 172.642 26.664L175.694 34H171.074L168.47 27H167.938ZM167.938 18.18V23.668H169.59C170.019 23.668 170.318 23.5747 170.486 23.388C170.654 23.2013 170.738 22.8747 170.738 22.408V19.244C170.738 18.8333 170.644 18.5533 170.458 18.404C170.271 18.2547 169.982 18.18 169.59 18.18H167.938ZM183.098 19.552C183.098 18.6187 182.538 18.152 181.418 18.152C180.316 18.152 179.766 18.6187 179.766 19.552V29.044C179.766 29.9773 180.316 30.444 181.418 30.444C182.538 30.444 183.098 29.9773 183.098 29.044V19.552ZM175.566 19.328C175.566 17.7973 176.06 16.584 177.05 15.688C178.039 14.7733 179.495 14.316 181.418 14.316C183.34 14.316 184.796 14.7733 185.786 15.688C186.794 16.584 187.298 17.7973 187.298 19.328V29.268C187.298 30.7987 186.794 32.0213 185.786 32.936C184.796 33.832 183.34 34.28 181.418 34.28C179.495 34.28 178.039 33.832 177.05 32.936C176.06 32.0213 175.566 30.7987 175.566 29.268V19.328ZM188.145 14.596H197.973V18.236H192.345V22.352H197.217V25.992H192.345V30.36H197.973V34H188.145V14.596ZM197.83 19.132C197.83 17.6387 198.334 16.4907 199.342 15.688C200.35 14.8667 201.797 14.456 203.682 14.456C205.586 14.456 207.005 14.652 207.938 15.044V19.076C206.799 18.5907 205.502 18.348 204.046 18.348C203.299 18.348 202.795 18.4693 202.534 18.712C202.273 18.936 202.142 19.2627 202.142 19.692V20.112C202.142 20.6347 202.226 21.0267 202.394 21.288C202.581 21.5307 202.973 21.8107 203.57 22.128L206.762 23.92C208.293 24.76 209.058 26.02 209.058 27.7V29.436C209.058 30.948 208.498 32.1147 207.378 32.936C206.258 33.7387 204.681 34.14 202.646 34.14C200.63 34.14 199.109 33.9253 198.082 33.496V29.436C199.351 29.9773 200.789 30.248 202.394 30.248C203.999 30.248 204.802 29.7907 204.802 28.876V28.456C204.802 28.0267 204.709 27.7093 204.522 27.504C204.354 27.28 204.027 27.0373 203.542 26.776L200.546 25.152C198.735 24.144 197.83 22.7253 197.83 20.896V19.132ZM220.831 19.048V20.868C220.831 22.6787 220.168 23.7893 218.843 24.2C220.28 24.536 220.999 25.656 220.999 27.56V29.548C220.999 32.516 219.412 34 216.239 34H209.435V14.596H216.071C219.244 14.596 220.831 16.08 220.831 19.048ZM215.371 18.124H213.635V22.352H215.371C216.248 22.352 216.687 21.9507 216.687 21.148V19.328C216.687 18.5253 216.248 18.124 215.371 18.124ZM216.855 29.268V27.28C216.855 26.4773 216.416 26.076 215.539 26.076H213.635V30.472H215.539C216.416 30.472 216.855 30.0707 216.855 29.268ZM229.095 19.552C229.095 18.6187 228.535 18.152 227.415 18.152C226.314 18.152 225.763 18.6187 225.763 19.552V29.044C225.763 29.9773 226.314 30.444 227.415 30.444C228.535 30.444 229.095 29.9773 229.095 29.044V19.552ZM221.563 19.328C221.563 17.7973 222.058 16.584 223.047 15.688C224.037 14.7733 225.493 14.316 227.415 14.316C229.338 14.316 230.794 14.7733 231.783 15.688C232.791 16.584 233.295 17.7973 233.295 19.328V29.268C233.295 30.7987 232.791 32.0213 231.783 32.936C230.794 33.832 229.338 34.28 227.415 34.28C225.493 34.28 224.037 33.832 223.047 32.936C222.058 32.0213 221.563 30.7987 221.563 29.268V19.328ZM241.394 19.552C241.394 18.6187 240.834 18.152 239.714 18.152C238.613 18.152 238.062 18.6187 238.062 19.552V29.044C238.062 29.9773 238.613 30.444 239.714 30.444C240.834 30.444 241.394 29.9773 241.394 29.044V19.552ZM233.862 19.328C233.862 17.7973 234.357 16.584 235.346 15.688C236.336 14.7733 237.792 14.316 239.714 14.316C241.637 14.316 243.093 14.7733 244.082 15.688C245.09 16.584 245.594 17.7973 245.594 19.328V29.268C245.594 30.7987 245.09 32.0213 244.082 32.936C243.093 33.832 241.637 34.28 239.714 34.28C237.792 34.28 236.336 33.832 235.346 32.936C234.357 32.0213 233.862 30.7987 233.862 29.268V19.328ZM250.642 34H246.442V14.596H250.642V23.332L253.834 14.596H258.314L254.758 23.976L258.65 34H253.974L250.642 24.732V34Z" fill="#FAFAFA"/>
</svg>
